<svg width="2228" height="1962" xmlns="http://www.w3.org/2000/svg" xmlns:xlink="http://www.w3.org/1999/xlink" xml:space="preserve" overflow="hidden"><defs><clipPath id="clip0"><rect x="1083" y="273" width="2228" height="1962"/></clipPath></defs><g clip-path="url(#clip0)" transform="translate(-1083 -273)"><path d="M2216.63 273.681C2240.11 270.992 2264.56 276.251 2284.19 289.676 2313.76 308.776 2334.69 337.939 2352.36 367.794 2432.59 502.299 2513.35 636.509 2593.54 771.054 2700.32 950.955 2807.14 1130.84 2913.64 1310.94 2987.32 1435.5 3061.19 1559.98 3135.37 1684.26 3184.23 1767.28 3234.62 1849.43 3281.33 1933.7 3301.45 1968.97 3312.5 2009.7 3310.84 2050.41 3309.67 2081.89 3303.96 2114.23 3287.43 2141.52 3264.25 2179.99 3225.39 2207.16 3183.25 2221.32 3160.77 2229.4 3137.19 2234.9 3113.22 2234.94 2851.67 2234.84 2590.13 2235.02 2328.6 2235 2306.11 2234.43 2283.24 2231.84 2262.13 2223.69 2246.69 2217.11 2231.49 2209 2219.41 2197.16 2198.8 2176.75 2185.43 2147.81 2189.01 2118.41 2190.87 2097.86 2195.89 2077.6 2204.35 2058.78 2212.55 2039.46 2224.1 2021.86 2234.12 2003.47 2277.86 1925.44 2323.68 1848.56 2371.33 1772.84 2386.59 1749.01 2399.88 1723.27 2420.99 1703.9 2443.42 1683.35 2471.59 1667.24 2502.44 1665.14 2527.25 1664.12 2551.64 1672.7 2572.32 1686 2595.64 1699.68 2614 1722.46 2620.15 1749.03 2629.02 1782.67 2619.48 1818 2605.23 1848.72 2589.24 1883.62 2566.45 1915.29 2554.21 1951.89 2551.98 1960.21 2548.95 1970.71 2555.16 1978.05 2561.46 1983.98 2570.22 1986.31 2578.42 1988.37 2602.14 1993.65 2626.61 1992.28 2650.75 1992.44 2739.7 1992.42 2828.64 1992.44 2917.59 1992.44 2935.2 1992.14 2952.83 1993.03 2970.44 1992.01 2983.15 1990.54 2997.01 1988.47 3006.89 1979.59 3013.42 1973.82 3014.23 1964.07 3011.76 1956.16 3006.34 1938.64 2997.01 1922.69 2987.8 1906.95 2750.63 1501.81 2514.78 1095.88 2275.11 692.185 2267.29 679.215 2260.57 665.138 2249.36 654.659 2243.82 649.34 2235.62 646.315 2228.07 648.51 2221.65 650.823 2217.3 656.478 2213.03 661.5 2202.47 674.964 2193.02 689.299 2184.35 704.048 2143.06 771.173 2103.54 839.365 2063.08 906.984 1830.04 1299.31 1596.96 1691.62 1363.94 2083.96 1349.49 2110.58 1334.11 2136.7 1317.35 2161.92 1302.62 2183.59 1284.75 2203.9 1261.73 2216.95 1234.59 2232.65 1201.06 2238.87 1170.64 2229.88 1148.45 2223.02 1126.98 2211.85 1111.09 2194.61 1090.97 2174.68 1082.05 2145.51 1083.08 2117.62 1084.11 2088.23 1093.93 2059.61 1108.74 2034.38 1250.22 1793.97 1392.62 1554.09 1535.55 1314.51 1609.07 1190.35 1682.27 1066.01 1756.21 942.098 1831.01 816.549 1905.98 691.118 1980.44 565.371 2021.99 494.549 2063.83 423.885 2107.5 354.329 2120.92 332.284 2138.29 312.512 2159.2 297.288 2176.36 285.584 2195.61 275.54 2216.63 273.681Z" fill="#9E9CE4" fill-rule="evenodd"/><path d="M2204.84 1202.73C2240.09 1197.06 2277.43 1205.48 2306.64 1226.02 2328.82 1243.14 2344.22 1268.8 2348.67 1296.49 2351.69 1317.61 2349.63 1339.49 2341.87 1359.44 2335.9 1376.7 2327.34 1392.93 2317.81 1408.49 2181.89 1636.98 2046.01 1865.49 1910.08 2093.99 1892.68 2122.59 1876.83 2152.25 1856.79 2179.13 1842.22 2197.14 1824.01 2212.44 1803 2222.41 1758.58 2246.07 1700.63 2231.64 1666.85 2196.05 1649.73 2178.88 1639.69 2155.27 1638.38 2131.13 1636.44 2106.14 1641.96 2080.88 1653.27 2058.6 1663.21 2036.93 1674.97 2016.19 1687.25 1995.79 1746.98 1895.29 1806.18 1794.46 1865.74 1693.86 1947.26 1555.51 2030.12 1417.98 2112.16 1279.95 2120.87 1264.25 2131.74 1249.78 2143.96 1236.65 2160.43 1219.93 2181.32 1206.41 2204.84 1202.73Z" fill="#5659E4" fill-rule="evenodd"/></g></svg>